<?xml version="1.0" encoding="utf-8"?>
<!-- Generator: Adobe Illustrator 21.0.2, SVG Export Plug-In . SVG Version: 6.00 Build 0)  -->
<svg version="1.1" xmlns="http://www.w3.org/2000/svg" xmlns:xlink="http://www.w3.org/1999/xlink" x="0px" y="0px"
	 viewBox="0 0 560 960" style="enable-background:new 0 0 560 960;" xml:space="preserve">
<g id="Outline_x5F_Yuwei">
	<path style="opacity:0.3;fill:#FF0000;" d="M28.1,397.3l0.9,0.4l0.1-0.5l10.4,2.5l2.3-8.7l-2.2-0.5l-0.4,1.9l-8.5-2l0.1-0.5
		l-0.9-0.2l0.2-0.9l-0.5-0.1l2-8.7l2,0.4l2.9-12.4l-0.6-0.3l-0.4-0.6l-0.2-0.7l0.2-0.6l0.5-0.5l0.7-0.2l0.4,0l13.9-57.3l1.2-4.5
		l-1.3-0.2l1.1-4.7l1.9,0.6l3.9-16.4l31,7.6L77,340.9l33.5,2.1l-0.4,5.1l-10.2-0.6l-0.2,4.5l-16.9-0.9l-0.9,4.4l-0.8,13.3l9.2,2.2
		l-1.1,4.2l-1,2.2l-1.8,2l-1.9,1.1l-2.4,0.5l-2.1-0.1L76,397.5l13.2,3l-1.4,5.9l6.5,1.6l-8.5,35.4l-22.3-5.3l-4.1,19.4l12.9,2.8
		l-1.5,7l4,0.9l-0.7,3.9l10.1,2.1l-5.3,23.4l-10-2.1l-0.8,3.4L64,498l-1.7,7.6l-15.1-3.4l1.5-6.8l-3.2-0.6l0.6-2.9l-5.5-1.1l0.9-3.4
		l-24.2-5.8L21,466l6.3,1.2l2.3-9.4L16,454.6l2-7.9l8.3,1.9l1.8-6.9l8.9,2.5l0.6-3.9l-3.8-0.7l2.4-10.9l10.2,2.7l3.5-14.1l-10.8-2.6
		l-7.1,0.3l-2.4-0.5l-1.5-1.4l-0.7-1.1l-0.7-0.3l1.1-4.3l-1.8-0.4L28.1,397.3z"/>
</g>
<g id="Outline_x5F_Zhehao">
	<path style="opacity:0.3;fill:#FF0000;" d="M171.8,439.4c1.4,0.7,4.4,1,7.3,1.1c2.8,0.1,5.4,0.1,8.4,0.2c3,0.1,6.4,0.4,9.3,0.7
		c2.9,0.3,5.3,0.6,7.3,1.2c1.9,0.6,3.4,1.5,5.1,3c1.7,1.4,3.6,3.4,6.3,5.5c2.6,2.2,6,4.5,9.1,6.2c3.1,1.7,6.1,2.6,8.9,3
		c2.8,0.4,5.4,0.4,8.4,0.7c2.9,0.4,6.2,1.2,7.9,1.8c1.7,0.6,2,1.1,2.1,1.6c0.1,0.5,0.1,1.2,0.1,2.5c0,1.3,0,3.2-0.1,4.3
		c-0.1,1.1-0.3,1.3-5.3,1.5c-5,0.2-14.8,0.2-19.9,0.3c-5.1,0.1-5.4,0.2-5.5-0.4c-0.1-0.6-0.1-1.8-0.6-2.5s-1.5-0.9-2.9-0.8
		c-1.4,0.1-3.1,0.5-5,0.7c-1.9,0.2-3.8,0.2-5.7,0.1c-1.9-0.1-3.6-0.4-4.6-0.5c-1-0.1-1.2-0.1-1.5,0.4c-0.3,0.4-0.6,1.3-0.9,1.9
		c-0.3,0.5-0.6,0.8-2.2,0.9s-4.5,0.2-9.7,0.2c-5.1,0-12.5-0.2-17.9-0.2c-5.4,0-8.8,0.1-11.2,0.1c-2.4,0-3.8-0.2-4.6-0.3
		c-0.8-0.1-1,0-0.9-5.3c0.1-5.2,0.4-15.8,0-20.6c-0.4-4.8-1.7-3.9-2.8-3.2c-1.1,0.6-2.1,1-2.9,0.9c-0.8-0.1-1.5-0.7-1.8-1.4
		c-0.3-0.7-0.2-1.6,0.3-2.6c0.5-1,1.5-2.1,3.2-3.7c1.7-1.6,4.1-3.8,6.1-5.4c2-1.7,3.5-2.8,4.5-3.8c1-1,1.4-1.8,1.4-2.6
		c0.1-0.8-0.2-1.7-0.7-2.3c-0.4-0.7-1-1.2-1.4-1.9c-0.4-0.7-0.5-1.6-0.1-2.3c0.4-0.7,1.3-1.1,2-1c0.8,0.1,1.4,0.6,1.8,1.3
		c0.4,0.7,0.7,1.5,0.8,2.3c0.1,0.8,0.1,1.5,0.3,2.5c0.2,0.9,0.6,2,0.9,2.9c0.4,0.9,0.7,1.5,0.7,2.2c0,0.7-0.2,1.5,0,2
		c0.1,0.5,0.6,0.6,1.4,1c0.7,0.4,1.7,1.1,2.4,2c0.7,0.9,1.1,1.9,1.1,3C170.8,437.5,170.4,438.7,171.8,439.4z"/>
</g>
<g id="Outline_x5F_Allister">
	<path style="opacity:0.3;fill:#FF0000;" d="M139.6,544.3l0.5,3.7h-13v-3.7H139.6z"/>
	<path style="opacity:0.3;fill:#FF0000;" d="M99.2,561.9l0.4,8.9H89.5v8.8H86v-16.2h5.8v-1.5H99.2z"/>
	<path style="opacity:0.3;fill:#FF0000;" d="M87,444.3l8,0.1v4.1h6.6v7.2h7.6v-4.5h5.4v8.8h3.2v-3.1h2.4v5.4h6.6v20.8h4.2v5.9h5
		v-10.7h17.8v62.5h-17.5v-13.5h-9.4v5.8H121v3.5h-14.6v-10.2H100v-7.8h4.8v-4.5H93.2v-3.3h7.2v-4.4h12.1v-8h12.2v4.1h5.9v-8.1h-5.1
		v-12.3h-4.1v7.6h-9.1v1.5H89V486h4.4v-4.1h-7.3v-8.5H94v-8.4h8.6v-5.5H95v-4.3h-8V444.3z"/>
	<path style="opacity:0.3;fill:#FF0000;" d="M241.3,562.3l2.8,0.1v-2.8h5.8v7.6h4.1v7.7h5.3v10.7h-4.6v7.5h-4.9v7.7h-7.6v-3.5H233
		v-2.8h-8.1v-4.6h-16.8v-5.7h-3v-3.6h-13.6v-1.8h4.4v-6.1h-12v-2.7h12.5v-2.3h10.3v-2.4h12.4V563h2.9v-8.3h11.4V552h7.8V562.3z"/>
	<path style="opacity:0.3;fill:#FF0000;" d="M104.1,550.4l-6.7,0.3v5.7h-9.8v-4.7h-4.2v10.9h-6.7v5.7h-7.1v-5.4h-7.8v9.6H56v-5.9
		H44.3v-12.4h7.2v-1.7H59V542h-2.2v-10.7h7.3v3.5h9.6v6.8h17.6V537h12.8V550.4z"/>
	<path style="opacity:0.3;fill:#FF0000;" d="M126.2,568.7l10.2-0.2v3.8h6.1v5.3h3.5v-7.2h2.7v3.9h4v14.1h8.1v12.6h-6.9v4.8h-3.3
		v-2.7h-9v3.3h-4.2v-3.3H129v-7.6h-4v7.9h-10.3v-3.6h-5.4v-8.7h2.4v-9.4h7.2V574h7.4V568.7z"/>
</g>
<g id="Outline_x5F_May">
	<path style="opacity:0.3;fill:#FF0000;" d="M37.1,690.3l25.6,1.6l0.2-3.9l0.9,0.1l0.2-2.9l8.8,0.6l0.1-1.9l-14.1-0.9l1-16.4
		l22.4,1.4l0.3-5.4l-9.9-0.6l0.6-9.9l3.1,0.2l0.5-8.6l-7.2-0.5l0.1-1.3l-4.4-0.3l-0.2,3.1l-12.7-0.8l0.3-5.4l-3-0.2l-0.3,4.9
		l-10.3-0.6l1-15.3l2.2,0.1l0.5-8l5,0.3l0.4-5.8l25.5,1.6l0-0.6l4.9,0.3l0.9-14l15.2,1l-0.5,7.2l8.6,0.5l-0.2,2.5l9.6,0.6l0.2-2.8
		l17.2,1.1l-1,15.6l-12.8-0.8l-0.7,11.6l-3.5-0.2l-0.6,10.3l-1.7-0.1l-0.4,7l10.6,0.7l0,0.7l6.3,0.4l0.1-1.9l0.4-6.6l10,0.6l0.2-2.7
		l18.7,1.2l-0.5,7.6l10.3,0.6l-0.1,0.9l10.1,0.6l-1.4,21.7l-14-0.9l0.3-5.4L157,672l-0.1,1.1l-13.8-0.9l0.2-2.7l-1.8-0.1l0.6-9.7
		l-1.8-0.1l-0.2,3.1l-0.8,0.1l-0.2,3.9l-16.7-1l-0.2,3.8l2.4,0.2l-1,16l8.4,0.5l-0.1,2l12.7,0.8l-0.3,4.6l1.3,0.1l0.2-3.7l10.4,0.7
		l-1.4,22.7l-10.4-0.7l0.2-3.9l-5.2-0.3l-0.2,3.3l-17.1-1.1l0.5-8.2l-1-0.1l-0.3,4.9l-16.6-1l0.7-11.6l8.1,0.5l0.3-5.4l-1.4-0.1
		l0.8-13.4l-2.3-0.1l-0.6,10.1l-6.8-0.4l-0.1,2.2L89.9,687l0-0.7l-2.4-0.1l-0.4,6.4l7.5,0.5l-0.2,3.1l5.2,0.3l-0.5,8.3l2.5,0.2
		l-0.8,13l-9.6-0.6l-0.2,2.8L80,719.5l1.2-19.2l-4.1-0.3l-0.2,3.8l-0.4,0l-3.6-0.2l-1,16.3L50,718.4l0.4-6.3l-14.6-0.9L37.1,690.3z"
		/>
</g>
<g id="Outline_x5F_SungVin">
	<path style="opacity:0.3;fill:#FF0000;" d="M310.7,606.1l10.3,0.3l-0.4,11.2l5.9,0.2l-0.2,7.4l-3.6-0.1l-0.1,2.2l8.3,0.3l-0.2,5.2
		l-8.3-0.3l-0.1,4.1l-4.9-0.2v-1.9l-25.7-0.9h-7.1l-0.1,3.3l-0.1,1.5l0,1l-0.3,3l-4.6-0.2l-0.1,3.3l0,0.3l-12.1-0.4l-0.3,0.5v19.3
		h-18.7v-5.6h-7.7v3.1h-16.5v-10.1l-34.2-1.3v-7.9l-5.6-0.4l1-15.5l-8.9-0.6l1.9-30.6l53.5,1.7l-0.1,3h29.5v4.6h7.4v-1.9h14v-3.2
		h10.9v-1.6h17.1V606.1z"/>
</g>
<g id="Outline_x5F_Tanit">
	<path style="opacity:0.3;fill:#FF0000;" d="M326,718.6l-0.8-3.8l4.5,0l1.9,20.2l11.3,0.3v-1.5h9l0,4.9l-0.1,17.5l5.7-0.1l0.1-4.6
		l10.5-0.2l5.7,0.4l1.2,7.4v4.2l-7.1,0.4l0.1,4.6l-3.3,0.1l0,1.9l4.6-0.1l0.1,4.9l0.2,3l4.2-0.2l0.1,0.5l7.1-0.2v0.6l7.7-0.7
		l11.3-0.6l8,1.1l8,0.2h11.3l-1.3-17.2l-4.9,0.1l-0.3-5.1H415v-11.2l4.8-2l5.9,0l6,0.6l2.6,0l2.6,0.2l1.3,0.7l1.4,1.3l1.1,5.9l1,6.1
		l3.1-0.3l0.3,0.8l0.2,4.9l-0.7,5.1l-12.5,0.9l1.3,12.5h3.1v2.3h27v19.5l-29.5-0.5l-0.2-8.2h-5.6l0-0.8V794v-10.4l-0.6,0l-5.9,0.9
		h-5.8l-17-0.9l-18.4,0.2v2.2h-10.3v5.4h-11.8v-13.5H353v18.5h-6.7V753h2.6v-12h-5.4v-1.7l-15.5-0.2L326,718.6z"/>
	<path style="opacity:0.3;fill:#FF0000;" d="M352.3,639.8l3.1,0.2l0.1-0.9l5.4,0.3l-0.1,1l2.8,0.1l0-0.7h2.1l0.4-4.8l8.9,0.5l0-0.9
		l5.4,0.3l-0.1,1l8,0.4l-0.2,4.8l2.2,0.1l0,0.9l1.3,0.1l0-0.9l5.4,0.3l0,0.9l3.9,0.2l-0.2,4.2l2.7,0.1l-1.5,24.9l1.3,0.1v8.8h-8.9
		l-0.1-2.4l-6.1-0.3l-0.1,2.7l-3.5-0.2l-1,1.4l-1.1,1l-0.9,0.7l-1.7,1.2l-1.4,0.6l-1.4,0.4l-2,0.1l-1.3-0.1l-1.4-0.1l-1.8-0.6
		l-1.7-0.7l-1.9-1.4l-1.3-1.4l-1-1.4l-0.4-0.9l-3.3-0.3l0.2-2.2l-13.1-0.7l1.8-30.1l-8.8-0.6l0.2-3.5l10.6,0.7L352.3,639.8z"/>
	<path style="opacity:0.3;fill:#FF0000;" d="M439.3,688.7l0.1-1.2l0.2-1.2l0.3-0.9l0.9-2.3l15.9,10.7l25.1-42.8l0.8,0.5l7.8,4.9
		l4-7.9l0.6,0.3l12,5.6l8.4,4.5l4.9,6.2l-1.5,6.4l10.8,6.7l-1.9,4l-10.8-5.9l-1,2.3l-1.5,0.6l-1.3,0.1l-2,1.5l-0.8,0l-2-0.3
		l-1.6,0.5l-11.2-6.4l-14.3-8.8l-19.3,31.7l11.9,5.9l0.7-1.7l3.4-5.7l5.8-6.6l1.8-2.7l7,3.8l0.6-1l8.5,4.7L491,713.5l7.8,3.4
		l3.4,1.9l2.5,0.2l2.9-5.6l3.2-3.9l4.3-6.5l-0.4-0.3l3.7-6.5l0.3,0.3l3,2.4l0.5-0.7l10.5,6.8l5.7-9.9l13,6.9l-6.8,11.4l-9.6-5.1
		l-0.6,1l-11.5-5.9l-2.1,3.3l-0.3-0.1l-3.2-1.7l-12.3,21l6.4,3.6l0.2-0.5l6,3.2l-3.4,5.3l-5-3.2l0.3-0.4l-1.3-0.7l-17.1-10.2
		l1.4-3.1l-17.7-9.8l-11-6.3l0.4-0.7l-12.8-7.3L439.3,688.7z"/>
</g>
<g id="Outline_x5F_Selin">
	<path style="opacity:0.3;fill:#FF0000;" d="M319.7,484.7l11.7-10.2l8.4,9.8l-1.6-5.8l7.9-8.8l-5.3-4.7l7.3-8.1l8.1,7.3l-2.7,3
		l1.7,2l8.4-7.2l6.4,7.4l3.6-3.1l0.2,0.2l-3.6,3.1l3.3,3.8l4.5-3.9l3.3,3.8l0.1,0.1l-4.5,3.9l6.9,8l2.6-2.3l4.3,5l-2.2,1.9l-0.4,0.4
		l0,0l0,0l0,0l3.6,4.1l0,0l0,0l0.1-0.1l0.3,0.4l-0.1,0.1l0,0l0,0l3.6,4.1l0,0l0,0l0.1-0.1l0.3,0.4l-0.1,0.1l0,0l0,0l3.6,4.1l0,0l0,0
		l0.1-0.1l0.3,0.4l-0.1,0.1l0,0l0,0l3.6,4.1l0,0l0,0l0.1-0.1l0.3,0.4l-0.1,0l-0.2,0.2l-3.2,2.8l-3.5,3l-0.4,0.3l0,2l-0.1,3l0.1,3.5
		l-2.4,0.1l-0.1,3.3l0.4,0v1l12.8,0.5l-0.8,21.2l-8.6-0.3l-0.3,6.9l-4.5-0.1l-0.1,0.7l-0.1,0.5l-0.3,0.7l-0.2,0.3l-0.1,0.2l-0.1,0.2
		l-0.2,0.2l-0.1,0.2l-0.3,0.3l-0.3,0.3l-0.3,0.3l-0.2,0.2l-0.3,0.3l-0.6,0.4v0l0.1,0.2l0.5,0l-1.2,25.8l15.1,0.7l0-8.6v-0.1l33.3,0
		l0,2.3l2.8,0l0,6.9l2.6,0l0,18.3l-2.6,0l0,6.8l-2.8,0l0,2.2l-29.7,0.1l-3.7,0l0-9.2l-1.5,0l0,0.7l-0.3,0l-2.5-0.1l-63.1-2.9
		l-19.7-1l-1.8,0l-0.3,0l0-0.5l0.1,0l0,0l0,0l0.2-5.2h-0.1l0.6-13.7l14.1,0.6l0.1-3.2l1.4-31l-1.1,0l0.1-2.6l-4.1-0.2l1.5-33.1
		l18,0.8l-0.6-0.7l-0.1,0.1l-0.2-0.3L319.7,484.7z"/>
</g>
<g id="Outline_x5F_Beryl">
	<path style="opacity:0.3;fill:#FF0000;" d="M274.8,356.9c1.1-1.3,3.8-3.8,5.6-5.4c1.9-1.6,3-2.4,4.2-3.1c1.2-0.7,2.4-1.5,3.5-2
		c1.1-0.5,2.1-0.7,3-0.7s1.8,0.3,2.5,0.7c0.7,0.4,1.1,1,1.4,1.6c0.3,0.6,0.4,1.3,0.4,2.1c0,0.8-0.1,1.8-0.3,3
		c-0.2,1.2-0.5,2.6-1,4.2c-0.5,1.6-1.3,3.5-2.1,5.4c-0.8,1.9-1.7,3.9-2.4,5.4l-1.5,3.2c-0.3,0.7-0.5,1.1-0.6,1.3
		c-0.1,0.2-0.2,0.3-0.3,0.3c-0.1,0-0.1-0.1-0.4-0.5c-0.3-0.4-1-1.1-3.1-3.4c-2.1-2.4-5.5-6.4-7.3-8.5c-1.8-2.1-2-2.2-2.2-2.3
		C273.9,358.2,273.6,358.2,274.8,356.9z"/>
	<path style="opacity:0.3;fill:#FF0000;" d="M262.5,440.7c0.7,0.1,1.1,0.2,1.3,0.3c0.2,0.1,0.2,0.2,0.1,0.3
		c-0.1,0.1-0.3,0.3-0.9,0.4c-0.6,0.1-1.7,0.1-3.2,0.3c-1.5,0.1-3.4,0.4-4.9,0.6c-1.5,0.2-2.6,0.5-3.9,0.9c-1.3,0.4-2.9,1.1-4.5,2.1
		c-1.6,1-3.2,2.4-4.5,3.6c-1.3,1.2-2.2,2.3-3.4,3.3c-1.3,1-3,1.8-4.3,2.2c-1.3,0.4-2.2,0.4-3.3,0.1c-1.2-0.3-2.6-0.9-3.9-1.7
		c-1.3-0.8-2.4-1.7-3.1-2.6c-0.7-0.8-1.1-1.6-1.1-2c0-0.4,0.4-0.4,0.9-0.3c0.4,0.2,0.8,0.5,1.4,1.1c0.6,0.6,1.3,1.3,2.4,2.1
		c1.1,0.8,2.5,1.6,3.8,1.9c1.3,0.4,2.4,0.3,3.6-0.2c1.3-0.5,2.7-1.4,4.1-2.5s2.7-2.6,4-3.8c1.3-1.2,2.7-2.1,4.3-2.9
		c1.6-0.8,3.3-1.6,5.4-2.1c2.1-0.5,4.5-0.9,6.3-1.1C260.8,440.6,261.8,440.6,262.5,440.7z"/>
	<path style="opacity:0.3;fill:#FF0000;" d="M299.3,347.3l2.8-2.5l-1.8-2l3.4-2.9l10.5,12.1l-3.4,2.9l-1.9-2.1l-2.6,2.4L299.3,347.3
		z"/>
	<path style="opacity:0.3;fill:#FF0000;" d="M272.5,355.4c0.4-0.3,1.6-1.5,2.9-2.7c1.3-1.3,2.8-2.6,4.3-3.8c1.4-1.2,2.8-2.2,3.9-3
		c1.2-0.8,2.1-1.3,2.9-1.7c0.8-0.4,1.5-0.6,2.1-0.7c0.6-0.1,1.1-0.2,1.6-0.3c0.5,0,0.9,0,1.4,0c0.5,0,0.9,0,1.3,0.1
		c0.4,0.1,0.8,0.2,1.2,0.4c0.4,0.2,0.7,0.4,1,0.6c0.3,0.2,0.5,0.3,0.8,0.6c0.3,0.3,0.5,0.7,0.8,1.6c0.3,0.8,0.6,2,0.5,4.1
		c-0.1,2.1-0.7,5.1-1.1,7.1c-0.4,1.9-0.7,2.8-1,3.4c-0.3,0.7-0.5,1.2-0.9,1.9c-0.4,0.8-0.8,1.8-1.1,2.6c-0.3,0.8-0.5,1.3-0.7,1.9
		c-0.2,0.6-0.6,1.1-0.9,1.6c-0.3,0.5-0.4,0.9-0.8,1.6l-1.2,2.4c-0.4,0.7-0.6,1.1-0.7,1.5c-0.2,0.4-0.3,0.8-0.4,1.1
		c-0.1,0.3-0.1,0.4-0.1,0.7c0,0.2,0.2,0.5,0.3,0.8c0.1,0.3,0.3,0.6,0.5,0.9c0.2,0.3,0.4,0.5,0.5,0.8l0.6,0.8
		c0.2,0.3,0.4,0.5,0.5,0.8c0.1,0.2,0.2,0.4,0.9,1.1c0.7,0.7,2,2,3.4,2.2c1.4,0.2,3-0.7,4.4-1.3c1.4-0.5,2.6-0.7,3.3-1
		c0.7-0.3,0.8-0.8,1.3-1c0.4-0.2,1.1-0.3,1.6-0.3c0.5,0,0.7,0,1.3,0c0.6,0.1,1.5,0.3,2,0.3c0.5,0.1,0.6,0,1,0.1
		c0.4,0.1,1.2,0.4,1.8,0.6c0.6,0.2,1,0.2,1.5,0.6c0.5,0.4,1.2,1.2,1.8,2.2c0.6,1,1.2,2.3,1.5,2.9c0.3,0.6,0.1,0.6,0.2,0.9
		c0,0.3,0.2,0.9,0.3,1.4c0.1,0.5,0.1,0.9,0.1,1.2c0,0.3-0.1,0.6-0.1,1c0,0.4,0.1,0.9,0.1,1.3c-0.1,0.4-0.3,0.6-0.4,1
		c-0.1,0.4-0.1,0.9-0.2,1.3c-0.1,0.4-0.3,0.8-0.5,1c-0.2,0.3-0.3,0.4-0.5,0.7s-0.3,0.8-0.7,1.7c-0.5,0.9-1.2,2.3-1.7,3
		c-0.5,0.7-0.7,0.9-2.9,3.5c-2.2,2.7-6.3,7.8-8.5,11.6c-2.1,3.8-2.1,6.1-1.4,8.2c0.8,2,2.3,3.7,4.2,5.3c1.9,1.6,4.1,3,5.6,5.1
		c1.5,2.1,2.3,4.8,2.4,7.2c0.2,2.4-0.2,4.5-0.2,5.7c0,1.2,0.3,1.6,0.4,1.9c0.1,0.3,0,0.6-0.2,0.7c-0.2,0.1-0.6,0.1-0.9,0
		c-0.2-0.1-0.3-0.3-0.9,0.4c-0.6,0.7-1.6,2.3-3.1,3.4c-1.4,1.2-3.2,1.9-5.3,2.2c-2.1,0.3-4.5,0.1-6.5-0.2c-2-0.3-3.6-0.8-5.3-1.1
		c-1.7-0.3-3.4-0.3-7.4-0.2c-4,0.2-10.4,0.5-15.5,0.9c-5.1,0.4-9,0.8-12.1,1.5c-3.1,0.6-5.3,1.5-8.3,2.2c-3,0.7-6.7,1.4-10,1.4
		c-3.3,0.1-6.1-0.4-9.4-1.7c-3.3-1.3-7-3.5-10.1-6c-3.1-2.4-5.6-5.1-7.2-6.7c-1.6-1.6-2.4-2.1-4.1-2.4c-1.7-0.4-4.4-0.6-6.7-0.7
		c-2.3-0.1-4.1-0.2-8.1-0.3c-4-0.1-10.2-0.2-14.5-0.4c-4.3-0.2-6.6-0.4-8.4-1.2c-1.8-0.8-3.2-2.1-3.9-4.4c-0.7-2.3-0.6-5.6,0-7.7
		c0.6-2.2,1.7-3.2,3.4-4.2s3.8-2,6-2.9c2.2-0.9,4.4-1.8,6.4-2.7c2-0.9,3.8-1.7,6.4-2.7c2.6-1,6.1-2.2,8.7-3c2.7-0.8,4.6-1.1,6-1.3
		c1.5-0.2,2.5-0.4,3.6-0.7c1.1-0.3,2.2-0.7,2.4-1.2c0.2-0.5-0.7-1.2-1.3-2c-0.6-0.8-1-1.7-1.5-2.8c-0.5-1.1-1-2.3-1.7-3.9
		c-0.6-1.6-1.3-3.5-1.8-4.6c-0.4-1.1-0.6-1.3-0.9-1.3c-0.3,0-0.8,0.3-1.1,0.9s-0.4,1.3-0.2,2c0.1,0.7,0.4,1.3,0.8,2.1
		c0.4,0.8,0.8,1.9,0.9,2.6c0,0.7-0.4,1.2-1.8,1.7c-1.4,0.5-3.9,1.1-6.4,1.2c-2.4,0.1-4.9-0.2-6.7-0.5c-1.8-0.4-3.1-0.8-4.1-1.3
		c-1-0.5-1.8-1-2.1-1.8c-0.3-0.8-0.1-1.9,0.2-3.7c0.3-1.8,0.6-4.3,0.4-6.3c-0.2-2-1-3.4-1.3-4.3c-0.3-0.9-0.2-1.4,0.1-1.7
		c0.4-0.4,1-0.6,1.5-0.7c0.5-0.1,0.9-0.1,1.2,0c0.3,0.1,0.4,0.2,0.5,0.5c0.1,0.3,0.2,0.7,0.3,1.2c0.1,0.4,0.2,0.8,0.4,1.1
		c0.2,0.2,0.4,0.3,0.7,0.5c0.3,0.2,0.8,0.6,1.2,1.1c0.4,0.5,0.9,1.1,1.3,1.5c0.4,0.4,0.9,0.7,1.6,0.9c0.7,0.2,1.6,0.3,2.5,0.3
		l2.2,0.2c0.7,0.1,1.5,0.1-0.2-1.5c-1.8-1.6-6.1-4.8-8.1-6.6c-2-1.8-1.7-2.2,0.6-0.8c2.3,1.4,6.7,4.7,9.1,6.4c2.4,1.7,3,1.8,2-0.5
		c-1-2.3-3.5-6.9-4.9-9.6c-1.4-2.7-1.7-3.4-2-3.8c-0.2-0.4-0.3-0.6-1-1.4c-0.7-0.7-1.9-2-3-2.8c-1.1-0.8-1.9-1.2-2.8-1.5
		c-0.8-0.3-1.7-0.5-2.5-0.7c-0.8-0.2-1.6-0.3-2.4-0.3c-0.8,0-1.7,0-2.5,0.1c-0.8,0.1-1.5,0.3-2,0.4c-0.5,0.1-0.7,0.2-1-0.3
		c-0.3-0.5-0.6-1.5-0.7-2c-0.1-0.5,0.2-0.6,1.9-0.7c1.7-0.1,4.9-0.1,7.3,0.2c2.4,0.3,4,0.9,5.3,1.7c1.3,0.8,2.3,1.6,3.1,1
		c0.8-0.7,1.5-3,2.5-4.8c1.1-1.8,2.6-3.2,4.4-4.3c1.8-1.1,4-2,6.1-2.4c2.1-0.4,4-0.4,6.3-0.6c2.3-0.2,4.9-0.5,7.2-1.3
		c2.2-0.8,4-2,5.4-3c1.4-1,2.3-1.8,3.2-2.7c0.9-0.9,1.7-1.9,3.3-4.1c1.5-2.2,3.8-5.5,5.4-7.9c1.7-2.4,2.7-3.9,3.4-4.6
		c0.7-0.7,1.1-0.6,1.3-0.4c0.2,0.1,0.4,0.3-0.7,2c-1.1,1.7-3.3,5-4.7,6.9c-1.4,2-2,2.7-2.5,3.5c-0.5,0.8-1.1,1.8-1.8,2.8
		c-0.7,1.1-1.5,2.3-1.8,3c-0.4,0.8-0.4,1.1-0.3,1.4c0.1,0.4,0.3,0.8,0.5,1.1c0.2,0.4,0.5,0.7,1.2,1.3c0.7,0.6,1.9,1.4,2.9,2
		c1,0.6,1.9,1,2.5,1.2c0.7,0.2,1.1,0.2,1.6,0.2c0.5,0,0.9-0.1,1.4-0.3c0.5-0.3,1-0.7,1.6-1.3c0.6-0.6,1.3-1.4,1.8-2
		c0.5-0.6,0.8-1,0.1-2.2c-0.8-1.2-2.6-3.3-3.6-4.6c-1-1.3-1.1-1.7-0.9-2c0.2-0.3,0.6-0.6,1.8,0.5c1.3,1.1,3.4,3.4,4.4,4.3
		c1,0.9,0.9,0.4,1.2-0.1c0.3-0.4,0.9-0.7,0.8-1.5c-0.1-0.8-0.8-2.2-1.3-3c-0.5-0.8-0.7-1.1,1.2-2.6s5.8-4.5,8-6
		c2.2-1.5,2.6-1.5,3-1.3c0.4,0.2,0.6,0.6,1,0.9c0.3,0.3,0.8,0.6,1.3,0.7c0.6,0.1,1.2,0.1,1.9,0c0.6-0.1,1.2-0.3,1.5-0.4
		c0.3-0.1,0.4-0.1,2.6,2.5c2.1,2.6,6.3,7.7,8.2,10.5C272.5,355.1,272.1,355.7,272.5,355.4z M274.8,356.9c-1.1,1.3-0.8,1.3-0.6,1.4
		c0.2,0.1,0.4,0.3,2.2,2.3c1.8,2.1,5.3,6.1,7.3,8.5c2.1,2.4,2.7,3,3.1,3.4c0.3,0.4,0.4,0.5,0.4,0.5c0.1,0,0.2-0.1,0.3-0.3
		c0.1-0.2,0.3-0.6,0.6-1.3l1.5-3.2c0.7-1.5,1.6-3.4,2.4-5.4c0.8-1.9,1.6-3.8,2.1-5.4c0.5-1.6,0.8-3,1-4.2c0.2-1.2,0.3-2.2,0.3-3
		c0-0.8-0.1-1.5-0.4-2.1c-0.3-0.6-0.8-1.2-1.4-1.6c-0.7-0.4-1.6-0.7-2.5-0.7s-1.9,0.2-3,0.7c-1.1,0.5-2.3,1.2-3.5,2
		c-1.2,0.7-2.3,1.5-4.2,3.1C278.5,353.1,275.9,355.6,274.8,356.9z M270.3,391.6c-1.9-2.8-6.1-8.1-8.3-11c-2.2-2.8-2.6-3.2-2.8-3.4
		c-0.2-0.2-0.4-0.2-1.2,0.9c-0.8,1.1-2.3,3.4-2.8,4.9c-0.5,1.5-0.1,2.4,0.2,3c0.3,0.7,0.6,1.2,0.7,2.1c0.1,0.8,0.1,2,0,2.9
		c-0.1,0.9-0.3,1.6-0.5,2.2c-0.1,0.6-0.2,1-0.1,1.6c0.1,0.6,0.3,1.3,0.6,1.8c0.3,0.6,0.7,1,1,1.6c0.3,0.6,0.7,1.4,1.2,2.4
		c0.6,1,1.3,2.2,1.8,3c0.5,0.8,0.7,1.3,0.9,1.6c0.2,0.3,0.4,0.4,1.8-1c1.5-1.4,4.2-4.3,5.8-6.1c1.6-1.8,2-2.5,2.4-3
		C271.8,394.8,272.2,394.5,270.3,391.6z M255.7,375.7c0.4-1.5-0.2-2.2-1.4-3.7c-1.3-1.5-3.2-3.9-5.2-6.4c-2-2.5-4.1-5-5.3-6.5
		c-1.3-1.5-1.7-1.9-2.2-1.9c-0.5,0.1-1,0.6-1.8,1.4c-0.8,0.8-1.9,1.8-3.1,2.4c-1.2,0.5-2.6,0.5-3.6,0.4c-1-0.1-1.7-0.2-2.4-0.6
		c-0.7-0.3-1.3-0.8-2-1.4c-0.7-0.6-1.3-1.3-2-2c-0.6-0.7-1.2-1.4-2.1-1.2c-0.9,0.2-2,1.3-3.8,2.4c-1.9,1.1-4.5,2.2-6.9,2.7
		c-2.4,0.6-4.7,0.6-6.7,0.7c-2,0.1-3.9,0.3-5.5,0.8c-1.7,0.5-3.2,1.3-4.5,2.6c-1.3,1.3-2.4,3.1-2.9,4.8c-0.5,1.7-0.4,3.3,0,4.7
		c0.4,1.4,1.1,2.6,1.7,3.3c0.5,0.7,0.8,0.9,1.5,0.9c0.7,0.1,1.7,0,2.4,0c0.7-0.1,1.1-0.2,1.3-0.3c0.3-0.1,0.4-0.3,0.5-0.5
		c0.1-0.3,0.1-0.6,0.2-1.1c0.1-0.5,0.2-1,0.5-1.3c0.3-0.3,0.6-0.3,1-0.4l1.2-0.2c0.4-0.1,0.8-0.1,1,0.1c0.3,0.2,0.4,0.7,0.6,1.2
		c0.1,0.5,0.3,1.1,0.3,1.5c0.1,0.4,0.1,0.6,0.3,0.8c0.2,0.1,0.7,0.1,0.9,0.5c0.2,0.4,0.2,1.1,0.3,1.8c0,0.7,0.1,1.3,0.3,1.6
		c0.1,0.4,0.3,0.5,0.5,0.6c0.1,0.2,0.2,0.3,0.3,0.8c0.1,0.4,0.1,1.1,0.2,1.5c0.2,0.4,0.6,0.4,0.8,0.6c0.2,0.2,0.3,0.6,0.4,1.2
		c0,0.6,0,1.5,0,2.2c0,0.8-0.1,1.5,0.2,3.4s1.1,4.9,1.7,7.9c0.6,3,1.1,6.1,1.2,7.8c0.1,1.7-0.2,2.1-0.9,2.6c-0.7,0.5-1.8,1-3.1,1.5
		c-1.3,0.5-2.7,1.1-4.2,1.5c-1.5,0.5-2.9,0.8-4.3,1.1c-1.4,0.3-2.6,0.5-4.3,1c-1.7,0.5-3.9,1.3-5.9,2c-2.1,0.8-4,1.5-7.1,2.8
		c-3.1,1.3-7.2,3.2-10,4.5c-2.7,1.3-4,2-5,3.1c-0.9,1.1-1.5,2.6-1.6,4.3c-0.1,1.7,0.4,3.5,1.2,4.7c0.8,1.1,2,1.6,3,1.8
		c1,0.2,1.8,0.2,3.1,0.2c1.3,0,2.9-0.1,5.9-0.1c2.9,0,7.1,0.2,11.5,0.5c4.4,0.3,9,0.8,11.7,1.3c2.7,0.5,3.6,0.9,4.5,1.4
		c0.9,0.5,1.7,1,2.5,1.6c0.8,0.6,1.4,1.2,2.6,2.4c1.2,1.2,2.8,2.9,4.3,4.5c1.6,1.5,3.1,2.8,5,4c1.9,1.2,4.3,2.4,6.2,3.2
		c2,0.8,3.6,1.2,5.3,1.4c1.7,0.2,3.6,0.2,5.1,0.1c1.5-0.1,2.8-0.4,4.9-1c2.1-0.6,5.2-1.7,8.4-2.5c3.2-0.8,6.6-1.5,11.7-1.9
		c5.1-0.4,12-0.6,16.5-0.8c4.5-0.1,6.5-0.2,8-0.1c1.5,0.1,2.5,0.2,3.4,0.4c0.9,0.2,1.7,0.5,2.7,0.8c1,0.2,2.1,0.4,3.1,0.5
		c1,0.1,1.8,0.1,2.6,0.1c0.8-0.1,1.6-0.2,2.2-0.4c0.6-0.2,0.9-0.4,1.2-0.6c0.2-0.2,0.3-0.4,0.5-0.7c0.2-0.3,0.4-0.7,0.6-1.1
		c0.3-0.3,0.6-0.6,0.9-0.9c0.3-0.4,0.7-0.9,0.9-1.5c0.2-0.7,0.2-1.5,0.3-2c0.1-0.5,0.2-0.8-0.1-1.2c-0.3-0.4-1.1-0.9-2-1.5l-3.3-2.4
		l-4.3-3.1l-3.2-2.3l-3.7-2.6l-4.7-3.4l-3.1-2.2c-1-0.7-2-1.4-3.7-2.7c-1.7-1.2-4-2.9-5.7-4.1c-1.7-1.1-2.6-1.7-3.5-1.8
		c-0.9-0.1-1.7,0.4-2.1,0.5c-0.4,0.1-0.5-0.1-0.5-0.5c0-0.5,0.1-1.2,0.1-1.7c0-0.5-0.2-0.7-0.5-1c-0.4-0.3-1-0.6-1.6-0.9
		c-0.6-0.3-1.3-0.7-1.8-0.9c-0.4-0.2-0.7-0.1-1.4,0.8c-0.7,0.9-1.8,2.6-4.5,6.4c-2.7,3.8-6.9,9.7-10,14.1c-3.2,4.4-5.3,7.3-6.4,8.8
		c-1.1,1.5-1.3,1.5-1.7,1.3c-0.4-0.3-1.2-0.9-5.1-3.7c-3.9-2.8-11.1-7.9-14.8-10.5c-3.7-2.6-4-2.6-4.1-2.8c-0.2-0.1-0.2-0.3,0.4-1.3
		c0.6-1,1.9-2.8,2.9-4.4l2.3-3.4c0.5-0.7,0.6-0.8,0.4-1c-0.2-0.2-0.6-0.3-1.3-0.7c-0.7-0.4-1.5-1-1.8-1.5c-0.3-0.5-0.1-0.8,0.2-1.2
		c0.3-0.4,0.8-0.8,1.1-1c0.3-0.2,0.4-0.1,0.6,0l0.8,0.5l1.4,0.8c0.5,0.3,1,0.6,2-0.3s2.4-3.1,3.2-4.3s1.1-1.5,0.8-1.7
		c-0.3-0.2-1.2-0.4-2.1-0.8c-1-0.4-2-0.9-3-1.7c-1-0.8-1.9-1.7-2.4-2.4c-0.6-0.7-0.8-1.2-1.1-2.3c-0.3-1.1-0.8-2.7-0.8-4.4
		c0-1.7,0.4-3.4,0.6-4.3c0.2-0.9,0.3-1,0.5-1.3c0.2-0.2,0.6-0.5,0.7-0.8c0.2-0.2,0.1-0.4-0.1-0.8c-0.2-0.4-0.4-1.1-0.5-1.8
		c-0.1-0.7,0-1.3,0.2-1.9c0.2-0.6,0.5-1.2,0.8-1.7c0.3-0.5,0.6-1.1,0.7-1.5c0.1-0.4-0.1-0.7-0.5-1.3c-0.4-0.6-1.1-1.6-1.6-2.5
		c-0.5-0.9-0.9-1.6-1.1-2.1s-0.3-0.7-0.4-0.8c0-0.2,0-0.3,0.2-0.6c0.2-0.2,0.6-0.5,1.3-0.9c0.6-0.4,1.5-0.9,4.3-2.6
		c2.8-1.6,7.6-4.4,10.2-5.9c2.7-1.5,3.3-1.7,3.7-1.9c0.5-0.2,0.8-0.4,1.2-0.4c0.4,0,0.7,0.2,1.8,1.9c1.1,1.6,3,4.7,4.3,6.9
		c1.3,2.2,2,3.6,2.6,4.3c0.6,0.8,1,0.9,1.8,1.1c0.8,0.2,1.9,0.4,3.1-0.8C253.8,379.6,255.3,377.2,255.7,375.7z M273.7,413.9
		c1.7,0.1,5.2-1.4,6.6-2.3c1.4-0.9,0.7-1.2,0.4-1.8c-0.4-0.5-0.4-1.2-0.3-1.9c0.1-0.7,0.5-1.3,1-1.8c0.5-0.6,1.2-1.1,1.8-1.3
		c0.6-0.2,1.2,0,2,0.2c0.7,0.2,1.6,0.6,2.2,1.2c0.6,0.6,0.8,1.5,0.9,2.5c0,1-0.2,2.1-0.3,2.7c-0.1,0.7-0.2,0.9-0.6,1.3
		c-0.4,0.4-1,1.1-1.7,1.6c-0.7,0.5-1.4,0.8-2.7,1.4l-4.6,2.1c-1.5,0.7-2.8,1.3-3.7,1.7c-1,0.4-1.6,0.6-1,1.3c0.7,0.7,2.6,2,6.3,4.7
		c3.7,2.7,9.2,6.9,12.7,9.5c3.5,2.6,5,3.6,6.2,4.3l2.5,1.7c0.7,0.5,1.2,0.9,2,1.3c0.7,0.5,1.6,1,2.3,1.3c0.7,0.3,1.1,0.4,1.5,0.3
		c0.4-0.1,0.7-0.3,0.3-0.5c-0.4-0.2-1.5-0.4-1.7-0.8c-0.2-0.4,0.5-1,0.5-1.5c0.1-0.5-0.4-0.7-1-0.9c-0.6-0.2-1.3-0.2-2.1-0.2
		c-0.8-0.1-1.6-0.2-2.2-0.4c-0.6-0.2-0.9-0.5-1.2-0.9c-0.3-0.4-0.6-0.9-0.7-1.4c-0.1-0.5-0.1-0.8-0.3-1.2c-0.2-0.4-0.7-0.7-1-1.4
		c-0.3-0.6-0.5-1.6-0.8-2.2c-0.3-0.6-0.6-0.9-1.1-1.5c-0.4-0.6-1-1.6-1.1-4.1c-0.1-2.6,0.2-6.7,1.2-10c1-3.3,2.7-5.6,4.1-7.1
		c1.4-1.5,2.6-2.2,4-3.4c1.4-1.2,3.1-2.9,4.1-3.9c0.9-1,1-1.4,0.9-1.8c-0.2-0.4-0.6-0.8-1.6-0.8c-0.9,0-2.3,0.5-3.6,0.7
		c-1.3,0.2-2.5,0.2-3.6,0c-1.1-0.3-2.1-0.8-2.8-1.7c-0.7-0.9-1.2-2-1.3-3.3c-0.1-1.3,0-2.6,0.5-3.8c0.4-1.2,1.1-2.1,1.4-2.7
		c0.3-0.6,0.3-0.9,0-1.4c-0.3-0.5-0.9-1.1-2-1.9c-1.1-0.8-2.7-1.9-3.7-2.6c-1.1-0.7-1.6-1.1-2.1-1c-0.5,0.1-1.1,0.8-2.4,2
		c-1.4,1.2-3.5,3-4.8,4c-1.3,1-1.6,1.2-2,1.5c-0.4,0.3-0.8,0.7-1.5,1.4c-0.7,0.7-1.8,1.7-2.8,3c-1,1.3-2,2.8-2.7,5.5
		c-0.7,2.8-1.2,6.8-1.6,9.7C272.2,412.2,272,413.8,273.7,413.9z"/>
</g>
<g id="Outline_x5F_Canon">
	<path style="opacity:0.3;fill:#FF0000;" d="M114,218.2l0.3-0.1c0.2,0,0.3,0,0.5,0l0.3,0.1c0.1,0,0.3,0.1,0.4,0.2
		c0.1,0.1,0.3,0.2,0.4,0.3c0.1,0.1,0.2,0.2,0.3,0.3c0.1,0.1,0.1,0.2,0.2,0.4l0.1,0.3c0,0.2,0,0.3,0,0.5l-0.1,0.4l-0.2,0.5l-0.2,0.5
		c-0.1,0.3-0.3,0.5-0.4,0.8l-0.1,0.3l-0.1,0.4l0.3,0.3l0.4,0.3l0.6,0.4c0.4,0.3,0.8,0.5,1.2,0.8l0.8,0.4l0.7-0.8
		c0.2-0.3,0.5-0.5,0.7-0.7l0.3-0.3l0.3-0.2l0.4-0.2l0.3-0.1l0.3,0l0.3,0l0.3,0.1c0.2,0.1,0.3,0.1,0.4,0.3c0.1,0.1,0.3,0.2,0.4,0.4
		c0.5,0.2,1,0.4,1.5,0.7c0.3,0.1,0.6,0.3,0.8,0.5l0.4,0.3c0.1,0.1,0.3,0.2,0.4,0.4l0.2,0.3l0.4,0.1l0.3,0.2l0.4,0.2l0.7,0.6l1,0.9
		l0.2,0.1l0.4,0.1c0.3,0.1,0.5,0.3,0.6,0.5c0.2,0.2,0.3,0.4,0.3,0.7c0,0.2,0.1,0.3,0.1,0.5l0,0.4l-0.1,0.3l-0.2,0.6
		c-0.2,0.4-0.4,0.8-0.6,1.2l-0.3,0.4l0.8,0.7c0.3,0.3,0.6,0.5,1,0.7c0.4,0.2,0.7,0.4,1.1,0.6l1.1,0.6l0.6-0.9
		c0.2-0.3,0.4-0.5,0.6-0.8c0.2-0.2,0.3-0.3,0.5-0.4l0.3-0.1l0.3-0.1c0.2,0,0.3-0.1,0.5-0.1l0.3,0l0.3,0.1c0.2,0.1,0.4,0.2,0.6,0.3
		c0.1,0.1,0.3,0.2,0.4,0.4c0.3,0.2,0.6,0.4,1,0.5c0.4,0.2,0.7,0.4,1.1,0.6c0.3,0.2,0.5,0.3,0.7,0.5c0.2,0.1,0.3,0.3,0.4,0.5l0.3,0.1
		c0.1,0.1,0.3,0.1,0.4,0.2l0.3,0.3c0.3,0.3,0.6,0.5,0.9,0.8c0.3,0.3,0.7,0.6,1,0.9l0.2,0.1l0.3,0.2c0.1,0.1,0.3,0.2,0.4,0.3
		c0.1,0.1,0.2,0.3,0.3,0.4c0.1,0.1,0.1,0.3,0.1,0.4c0,0.2,0.1,0.4,0.1,0.6c0,0.2,0,0.3-0.1,0.5l-0.1,0.3l-0.1,0.3l-0.3,0.6l-0.5,0.7
		l0.2,0.3l0.3,0.3l0.7,0.6c0.5,0.4,0.9,0.7,1.4,1l0.8,0.5c0.2-0.3,0.5-0.6,0.7-0.9c0.2-0.2,0.4-0.4,0.6-0.6l0.4-0.3
		c0.2-0.1,0.4-0.2,0.5-0.2c0.2-0.1,0.5-0.1,0.7,0c0.2,0,0.5,0.1,0.7,0.2l0.3,0.2l0.2,0.2l0.2,0.3c0.6,0.3,1.1,0.5,1.7,0.8
		c0.3,0.1,0.6,0.3,0.8,0.5c0.1,0.1,0.3,0.2,0.4,0.3c0.1,0.1,0.3,0.3,0.4,0.4c0.2,0,0.3,0.1,0.4,0.2l0.4,0.2l0.5,0.4l1.5,1.4l0.4,0.1
		c0.2,0.1,0.4,0.3,0.6,0.5c0.1,0.1,0.2,0.2,0.2,0.3l0.1,0.3c0.1,0.2,0.1,0.4,0.1,0.5l0,0.3c0,0.2-0.1,0.4-0.2,0.6
		c-0.1,0.2-0.2,0.4-0.3,0.6l-0.6,0.9l0.8,0.8c0.4,0.4,0.8,0.8,1.2,1.1l1,0.8l1.1,0.8c0.8,0.6,1.6,1.1,2.4,1.6
		c1.3,0.8,2.6,1.5,3.9,2.2l0.7,0.3l0.3-0.3l0.8-0.9l0.3-0.3c0.2-0.1,0.3-0.2,0.5-0.3c0.1-0.1,0.3-0.1,0.4-0.1l0.2,0l0.3,0
		c0.2,0,0.3,0,0.5,0.1c0.1,0,0.3,0.1,0.4,0.1l0.3,0.2l0.7,0.4c0.3,0.2,0.7,0.4,1,0.6c0.3,0.2,0.7,0.3,1,0.5l0.3,0.2l0.3,0.2
		c0.2,0.2,0.3,0.3,0.4,0.5c0.3,0.1,0.5,0.2,0.8,0.4c0.3,0.2,0.5,0.4,0.8,0.6l1,0.9l0.3,0.3l0.1,0l0.2,0.1l0.2,0.2l0.3,0.3
		c0.1,0.1,0.2,0.2,0.3,0.4c0.1,0.1,0.1,0.3,0.2,0.4l0.1,0.4l0,0.3l0,0.3l-0.1,0.4l-0.1,0.3c-0.2,0.5-0.4,1-0.7,1.4l0.5,0.5
		c0.4,0.4,0.9,0.8,1.3,1.1l0.6,0.4l0.6,0.4l0.6,0.3c0.4-0.4,0.7-0.9,1.1-1.3l0.3-0.3c0.1-0.1,0.3-0.2,0.4-0.3
		c0.2-0.1,0.5-0.2,0.8-0.3c0.2,0,0.3,0,0.5,0l0.4,0.1c0.2,0,0.3,0.1,0.5,0.2l0.3,0.2c0.2,0.2,0.4,0.3,0.6,0.5l0.4,0.2l0.8,0.4
		c0.4,0.2,0.7,0.3,1,0.6c0.3,0.2,0.5,0.4,0.7,0.7c0.3,0,0.5,0.1,0.8,0.3c0.2,0.1,0.3,0.2,0.5,0.4l0.4,0.4c0.4,0.4,0.7,0.7,1.1,1.1
		l0.3,0.3l0.1,0.1c0.1,0,0.2,0.1,0.2,0.1l0.2,0.1l0.2,0.2c0.2,0.2,0.3,0.3,0.4,0.5c0.1,0.2,0.1,0.4,0.2,0.6c0,0.2,0,0.3,0,0.5
		l-0.1,0.4l-0.2,0.5l-0.5,0.9l-0.2,0.4c0.2,0.2,0.5,0.4,0.7,0.7c0.3,0.3,0.7,0.5,1,0.7c0.7,0.4,1.4,0.8,2.1,1.2l0.5-0.6
		c0.1-0.2,0.3-0.4,0.5-0.6c0.1-0.1,0.3-0.3,0.4-0.4c0.1-0.1,0.3-0.2,0.4-0.3c0.2-0.1,0.4-0.2,0.6-0.2c0.2,0,0.4,0,0.6,0
		c0.2,0,0.3,0.1,0.5,0.1l0.4,0.2l0.4,0.3l0.3,0.3l0.3,0.1l0.4,0.2l0.5,0.2c0.3,0.1,0.5,0.3,0.8,0.5l0.3,0.2l0.3,0.3
		c0.1,0.1,0.2,0.2,0.3,0.4l0.2,0.3l0.4,0.2c0.2,0.1,0.5,0.3,0.7,0.4l0.7,0.5l0.7,0.6c0.1,0.1,0.3,0.3,0.4,0.4l0.2,0.2l0.2,0.2
		l0.2,0.3c0.2,0.2,0.3,0.4,0.4,0.7c0,0.1,0.1,0.3,0.1,0.4l0,0.4c0,0.2-0.1,0.4-0.1,0.6l-0.2,0.4c-0.1,0.3-0.3,0.6-0.5,0.9l-0.3,0.5
		c0.4,0.4,0.8,0.8,1.2,1.2l1,1l1,1c0.2-0.2,0.4-0.4,0.7-0.6l0.4-0.3c0.1-0.1,0.3-0.1,0.4-0.2c0.2-0.1,0.4-0.1,0.6-0.1l0.3,0l0.3,0.1
		c0.1,0.1,0.3,0.1,0.4,0.2l0.2,0.2l0.2,0.2l0.2,0.2l0.4,0.2l1.7,0.8l0.5,0.3c0.2,0.1,0.3,0.2,0.4,0.4c0.2,0.2,0.3,0.4,0.4,0.6
		l0.4,0.2c0.2,0.1,0.5,0.3,0.7,0.5l1.2,1l0.5,0.4l0.2,0.1c0.2,0.1,0.3,0.2,0.4,0.3l0.2,0.2l0.2,0.2l0.2,0.3c0.1,0.2,0.1,0.4,0.1,0.6
		c0,0.2,0,0.4,0,0.6c0,0.2-0.1,0.4-0.1,0.5l-0.2,0.4l-0.3,0.5c-0.1,0.2-0.2,0.4-0.3,0.6l-0.3,0.6l0.2,0.3c0.3,0.4,0.6,0.8,0.9,1.2
		l1.7,2.4c0.2-0.1,0.3-0.3,0.5-0.4c0.2-0.1,0.4-0.2,0.6-0.2c0.2,0,0.4,0,0.6,0c0.1,0,0.3,0.1,0.4,0.1l0.3,0.1l0.8,0.4l0.9,0.5
		l0.5,0.2l0.7,0.3l0.3,0.2l0.3,0.2c0.1,0.1,0.3,0.3,0.4,0.4l0.1,0c0.2,0.1,0.4,0.2,0.6,0.3l0.4,0.3l0.4,0.3l1.4,1.2l0.5,0.5l0.2,0.3
		c0.1,0.2,0.3,0.4,0.4,0.6l0.1,0.4c0.1,0.2,0.1,0.4,0.1,0.7c0,0.3-0.1,0.6-0.2,0.9l-0.2,0.4l-0.4,0.7c-0.1,0.2-0.2,0.3-0.2,0.5
		c0,0.1,0,0.2,0,0.4c0,0.1,0.1,0.3,0.1,0.4l0.2,0.6l0.5,1l1.2,2.7c0.4,0.8,0.7,1.5,1.1,2.3l0.3,0.8c0.1,0.2,0.2,0.5,0.2,0.7
		c0.1,0.3,0.1,0.5,0.1,0.8c0,0.3,0,0.5-0.1,0.8c0,0.2-0.1,0.5-0.2,0.7c-0.1,0.2-0.2,0.4-0.3,0.5l-0.1,0.1c-0.1,0.1-0.2,0.2-0.4,0.3
		c-0.2,0.2-0.5,0.3-0.8,0.3c-0.3,0-0.6,0-0.9-0.1l-0.3-0.1l-0.3-0.2c-0.1-0.1-0.2-0.2-0.3-0.3c-0.1-0.2-0.2-0.3-0.4-0.5l-0.3-0.6
		l-0.8-1.6l-1-2.1c-0.2-0.4-0.4-0.7-0.6-1.1l-0.3-0.5l-0.3-0.3l-0.4,0.6c-0.2,0.3-0.4,0.7-0.6,1c-0.3,0.4-0.6,0.8-0.9,1.2l-0.7,1
		c-0.3,0.3-0.5,0.7-0.8,1l-0.5,0.5l-0.5,0.5l-0.6,0.5c-0.2,0.1-0.4,0.3-0.6,0.5l-0.1,0.1l-0.2,0.2l-0.2,0.1l-0.2,0.1
		c-0.2,0.1-0.4,0.1-0.6,0.1l-0.3,0l-0.4-0.1c-0.2-0.1-0.4-0.2-0.6-0.4c-0.1-0.1-0.3-0.3-0.4-0.4l-0.2-0.3l-0.1-0.3l0-0.3l0-0.3
		l0.1-1.7c-0.7-0.5-1.3-0.9-2-1.3l-2.6-1.6c-0.1-0.1-0.3-0.2-0.4-0.2l-0.2,0c-0.8-0.1-1.7-0.1-2.5-0.2l-6.1-0.4l-2.3-0.1l-1.8-0.1
		l-0.4-0.1c-0.1,0-0.3-0.1-0.4-0.2c-0.2-0.1-0.3-0.2-0.4-0.3c-0.1-0.1-0.2-0.3-0.3-0.4l-0.2-0.4l-0.1-0.4l0-0.5l0-0.4
		c0-0.7,0-1.3,0.1-2l0.1-2.6l0-0.4l-0.4-0.4l-0.8-0.6c-1.5-1-2.9-2.1-4.4-3.1l-15.7-10.8l-6.8-4.7l-3.2-2.2
		c-0.5,8.3-1.1,16.5-1.6,24.8l8.6,0.5l4.3,0.3l4.2,0.3l0.4,0l0.3,0.1l0.3,0.1c0.2,0.1,0.3,0.2,0.4,0.3l0.2,0.2
		c0.1,0.1,0.2,0.2,0.2,0.4c0.1,0.1,0.1,0.3,0.1,0.4l0,0.3l0,0.5c0,1.1-0.1,2.2-0.2,3.3l-0.4,6l-0.3,4.9l0,0.5c0,0.1,0,0.3-0.1,0.4
		l-0.1,0.2l-0.2,0.3c-0.1,0.2-0.3,0.3-0.4,0.4c-0.2,0.1-0.4,0.2-0.6,0.3l-0.3,0l-0.3,0c-2.9-0.2-5.8-0.3-8.7-0.5l-8.7-0.5l-1.6,25.8
		c-0.1,1.2-0.2,2.5-0.3,3.7l0,0.2l0,0.1l-0.1,0.3c-0.1,0.1-0.1,0.3-0.2,0.4c-0.1,0.1-0.2,0.3-0.3,0.4c-0.2,0.2-0.4,0.3-0.6,0.3
		l-0.3,0.1l-0.3,0l-0.4,0l-0.8,0l-2.6-0.1l-6.5-0.4l-8.2-0.5l-6.7-0.4l-3.6-0.3c-0.2,0-0.5,0-0.7-0.1l-0.2,0l-0.2-0.1l-0.3-0.2
		l-0.3-0.2c-0.1-0.1-0.2-0.2-0.3-0.3c-0.1-0.1-0.1-0.3-0.2-0.4l-0.1-0.4l0-0.3l0-0.2l0-1.1l0.2-3.9c0.4-6.4,0.8-12.7,1.2-19.1
		c-0.1-0.1-0.3-0.2-0.4-0.3c-0.1-0.1-0.2-0.3-0.3-0.4l-0.1-0.3l0-0.2l0-0.2l0-0.3c0-1.1,0.1-2.2,0.2-3.3l0.2-3.3l0.6-9.6l0.6-9.6
		l0.2-3l0.1-0.9l0-0.3l0.1-0.2l0.1-0.2l0.1-0.2c0.1-0.1,0.2-0.3,0.4-0.4c0.1-0.1,0.3-0.2,0.4-0.3l0.3-4.3L140,283
		c0.4-6.6,0.8-13.1,1.2-19.7l-0.9-0.1l-0.6-0.1l-0.4-0.1c-0.1,0-0.3-0.1-0.4-0.2l-0.2-0.2l-1.8-1.3l-6.4-4.6l-6.2-0.4l-4.4-0.3
		l-1.3-0.1l-3.9,1.9c-1.3,0.6-2.6,1.3-4,1.9l-0.3,0.1l-0.2,0.1l-0.2,0l-0.3,0l-0.4-0.1c-0.3-0.1-0.7-0.3-0.9-0.5
		c-0.2-0.2-0.3-0.5-0.4-0.7c-0.1-0.2-0.1-0.4-0.1-0.6l0-0.3c0-0.1,0-0.3,0.1-0.4l0.1-0.3l0.1-0.2c0.1-0.2,0.2-0.4,0.3-0.6
		c0.3-0.5,0.6-0.9,0.9-1.4c0.3-0.5,0.6-1,0.8-1.5c0.3-0.6,0.5-1.1,0.7-1.7c0.2-0.6,0.4-1.1,0.5-1.7c0.1-0.6,0.2-1.2,0.3-1.8
		c0.1-0.7,0.1-1.4,0.1-2.1l-0.1-1.1l-0.2-1.1c-0.1-0.7-0.3-1.3-0.5-2l-0.2-0.7l-0.1-0.3l-0.6-0.1l-1.3-0.2l-3.7-0.5
		c-1-0.1-2-0.3-3.1-0.4l-0.8-0.1l-0.4-0.1c-0.3,1.1-0.5,2.2-0.7,3.4c-0.1,0.3-0.1,0.6-0.2,1c0,0.2-0.1,0.3-0.2,0.5
		c-0.1,0.1-0.1,0.3-0.2,0.4c-0.2,0.2-0.4,0.4-0.6,0.5c-0.1,0.1-0.3,0.1-0.4,0.2l-0.4,0c-0.1,0-0.2,0-0.3,0l-0.2,0l-1.4-0.3l-3.5-0.8
		l-11.4-2.7l-6.1-1.5l-3.3-0.8c-0.9-0.2-1.8-0.5-2.7-0.7c-0.4-0.1-0.7-0.2-1.1-0.3l-0.2-0.1l-0.2-0.1l-0.2-0.2
		c-0.1-0.1-0.2-0.2-0.3-0.3c-0.1-0.2-0.2-0.3-0.2-0.5c-0.1-0.2-0.1-0.4-0.1-0.6c0-0.1,0-0.3,0.1-0.4l0.1-0.4l0.1-0.3l0.4-1.7
		l1.4-5.6l2.3-9l2.2-8.7c0.4-1.8,0.9-3.5,1.3-5.3l0.3-1.5l0.1-0.4c0.1-0.2,0.1-0.3,0.2-0.5c0.1-0.2,0.2-0.4,0.4-0.5
		c0.2-0.2,0.4-0.4,0.6-0.5c0.2-0.1,0.4-0.2,0.6-0.2l0.4,0l0.4,0l0.5,0.1l2.3,0.5c0.8,0.2,1.6,0.4,2.4,0.6c0.9,0.2,1.7,0.5,2.6,0.8
		c0.9,0.3,1.8,0.7,2.7,1.1c1.1,0.5,2.1,1,3.2,1.6c1.2,0.6,2.4,1.3,3.6,2l3.7,2.1c1.1,0.7,2.3,1.4,3.4,2.1c0.4-0.5,0.9-1.1,1.3-1.7
		c0.8-1,1.5-2.1,2.2-3.1c1.1-1.7,2.3-3.3,3.4-5c1-1.6,2.1-3.2,3.1-4.8c0.9-1.5,1.9-3,2.7-4.6l1.1-2l0.8-1.4l0.7-1.3l0.4-1
		c0.1-0.2,0.2-0.5,0.2-0.7l0.1-0.6c0-0.2,0-0.5,0-0.7c0-0.7-0.2-1.4-0.4-2.1c-0.1-0.2-0.2-0.5-0.2-0.7l-0.1-0.4c0-0.2,0-0.3,0-0.5
		c0-0.2,0.1-0.3,0.1-0.5c0.1-0.2,0.2-0.4,0.4-0.6c0.2-0.2,0.4-0.3,0.7-0.4l0.4-0.1l0.3,0c0.2,0,0.3,0,0.5,0.1c0.2,0,0.3,0.1,0.5,0.2
		c0.2,0.1,0.3,0.2,0.5,0.3c0.3,0.2,0.6,0.4,0.8,0.7l0.9,0.8l1.7,1.6l3.1,3.1l3.7,3.7l1.7,1.8l1.4,1.6l1,1.1l0.3,0.4l0.1,0.1l0.1,0.2
		l0.1,0.4c0,0.2,0.1,0.4,0,0.5c0,0.3-0.1,0.5-0.2,0.7c-0.1,0.2-0.3,0.4-0.5,0.6c-0.2,0.1-0.3,0.2-0.5,0.3c-0.1,0-0.3,0.1-0.4,0.1
		l-0.2,0l-0.2,0l-0.2,0l-0.9-0.2c-0.3-0.1-0.7-0.1-1-0.2c-0.4,0-0.8-0.1-1.2-0.1c-0.4,0-0.8,0-1.1,0.1c-0.4,0.1-0.8,0.2-1.2,0.4
		c-0.5,0.2-0.9,0.5-1.3,0.8c-0.5,0.4-1,0.8-1.5,1.2c-0.5,0.5-1,1-1.5,1.6c-0.3,0.3-0.5,0.7-0.8,1c-0.6,0.9-1.1,1.7-1.6,2.6l-1.7,3
		l-2.4,4.2l-2.3,4L114,218.2z"/>
</g>
<g id="Outline_x5F_Craig">
	<path style="opacity:0.3;fill:#FF0000;" d="M274.4,510.6c0.3-0.2,0.7-0.3,1.2-0.3c0.5,0,1.2,0.1,1.8,0.2c0.6,0.2,1.1,0.5,1.6,0.7
		c0.5,0.2,0.9,0.3,1.3,0.2c0.5,0,1-0.1,1.4-0.2l1.4-0.4c0.5-0.1,1.2-0.3,1.7-0.3c0.5-0.1,0.9,0,1.2,0.1c0.3,0.1,0.6,0.4,0.9,0.6
		c0.3,0.2,0.6,0.3,0.9,0.3c0.3,0,0.6-0.2,0.7-0.5c0.2-0.3,0.2-0.6,0.4-0.8c0.2-0.2,0.4-0.4,0.8-0.3c0.3,0,0.7,0.3,1.1,0.4
		c0.4,0.2,0.8,0.3,1.2,0.4c0.4,0,0.7-0.1,1,0c0.3,0,0.5,0.1,0.8,0.4c0.3,0.3,0.6,0.7,0.9,1.1c0.3,0.4,0.5,0.8,0.7,1.4
		c0.2,0.5,0.4,1.1,0.6,1.6s0.2,0.9,0.1,1.2c-0.2,0.3-0.6,0.6-1,0.8c-0.4,0.2-0.7,0.3-1.3,0.4c-0.5,0.1-1.2,0.1-1.8,0
		c-0.6,0-1-0.1-1.5-0.1c-0.5,0-0.9,0-1.4,0c-0.5,0-1,0-1.6,0c-0.6,0-1.2-0.1-1.7-0.2c-0.5,0-1,0-1.2,0c-0.3,0-0.3,0.1-0.5,0.4
		c-0.1,0.3-0.2,0.9-0.8,1.1c-0.6,0.3-1.6,0.3-4,0.2c-2.4,0-6.2-0.1-10-0.1c-3.8,0-7.7,0.1-9.8-0.1c-2.1-0.1-2.3-0.4-2.5-0.9
		c-0.2-0.4-0.3-0.9-0.6-1.2c-0.3-0.3-0.7-0.5-1.2-0.7c-0.4-0.1-0.9-0.2-1.1-0.4c-0.2-0.1-0.1-0.3,0.1-0.6c0.2-0.3,0.4-0.6,0.8-1
		c0.3-0.3,0.8-0.7,1.3-0.9c0.5-0.2,1-0.3,1.5-0.3l1.4-0.2l1.9-0.1c0.6,0,0.9,0,1.3,0c0.4,0,0.8,0.1,1.2,0.2c0.4,0.1,0.8,0.3,1.1,0.4
		c0.3,0.1,0.6,0.3,1,0.4c0.3,0.1,0.7,0.2,1.2,0.2c0.4,0,0.9,0,1.2,0c0.4,0,0.6-0.1,0.9-0.2c0.3-0.2,0.6-0.4,0.9-0.6
		c0.3-0.2,0.5-0.3,1-0.6l1.5-0.7c0.5-0.2,0.9-0.4,1.3-0.6L274.4,510.6z"/>
	<path style="opacity:0.3;fill:#FF0000;" d="M344.1,644.9c0.5-0.1,1.1,0.1,1.5,0.2c0.4,0.2,0.8,0.4,1.1,0.6l0.9,0.5
		c0.3,0.2,0.5,0.4,0.7,0.6c0.2,0.2,0.4,0.4,0.5,0.7c0.1,0.2,0.2,0.4,0.3,0.7c0.1,0.3,0.1,0.7,0.2,1.2l0.1,1.9c0,0.7,0.1,1.4,0.1,2.6
		c0,1.1,0,2.7-0.2,4.4c-0.1,1.7-0.3,3.4-0.4,4.7l-0.2,2.7c0,0.5-0.1,0.8-0.2,2.1c-0.1,1.3-0.1,3.6-0.1,4.8c0,1.2,0.2,1.4,0.6,1.6
		c0.4,0.2,1.1,0.4,1.6,0.6c0.5,0.2,0.9,0.4,1.2,0.6l1.2,0.6c0.5,0.3,1.2,0.6,1.9,0.8c0.7,0.2,1.3,0.3,2.1,0.5
		c0.8,0.2,1.8,0.4,2.6,0.7c0.8,0.2,1.4,0.5,1.8,0.8c0.4,0.3,0.5,0.7,0.5,1.1c0,0.3-0.2,0.6-0.5,0.8c-0.3,0.2-0.7,0.5-1.3,0.6
		c-0.5,0.1-1.2,0.1-2,0.1l-2.9,0l-3.2,0c-0.9,0-1.4,0-1.8,0.2c-0.4,0.1-0.6,0.4-0.8,0.6c-0.3,0.2-0.6,0.4-0.9,0.5
		c-0.3,0.1-0.6,0.2-0.9,0.2c-0.3,0-0.6,0-1-0.1c-0.4-0.1-1-0.2-1.4-0.4c-0.4-0.2-0.7-0.4-0.9-0.6c-0.3-0.1-0.5-0.1-0.9-0.2
		c-0.3,0-0.7-0.1-1.2-0.3c-0.5-0.2-1.2-0.5-2-0.8c-0.7-0.4-1.5-0.8-2.3-1.1c-0.8-0.3-1.6-0.4-2.3-0.4c-0.7,0-1.2,0.1-1.9,0.4
		c-0.7,0.3-1.7,0.7-2.6,0.9c-0.8,0.3-1.6,0.5-2.8,0.5s-2.9,0-4.3-0.1c-1.4-0.1-2.6-0.1-3.6-0.2c-1-0.1-1.7-0.3-2.4-0.7
		c-0.7-0.3-1.5-0.8-2.1-1.3c-0.6-0.5-1.1-0.9-1.6-1.4c-0.5-0.5-1-1-1.2-1.5c-0.2-0.5-0.1-1.1,0.2-1.6c0.2-0.5,0.6-0.9,1.1-1.1
		c0.5-0.2,1.2-0.3,2-0.3c0.7,0,1.5,0,2.3,0.1c0.8,0.1,1.7,0.2,2.6,0c1-0.2,2-0.6,3-0.8c1-0.3,1.9-0.4,2.7-0.5c0.8-0.1,1.5-0.1,2.3,0
		c0.8,0.1,1.6,0.1,2.5,0.2l2.2,0.3c0.7,0.1,1.4,0.2,2,0.3c0.6,0.1,1.3,0,1.7,0c0.5,0,0.8-0.1,1-0.3c0.2-0.2,0.2-0.6,0.2-1.2
		c0-0.6,0-1.5-0.2-2.5c-0.2-1-0.6-2.2-0.9-3.1c-0.4-0.9-0.8-1.6-1.4-2.7c-0.6-1.1-1.3-2.5-2-3.5c-0.7-0.9-1.2-1.4-1.8-1.6
		c-0.6-0.3-1.2-0.4-1.8-0.6c-0.7-0.2-1.4-0.5-2-0.9c-0.6-0.4-1-0.9-1.4-1.6c-0.4-0.6-0.9-1.3-1.2-1.9c-0.3-0.6-0.4-1.1-0.5-1.7
		c-0.1-0.6-0.2-1.2-0.2-1.7c0-0.5,0.2-1,0.5-1.3c0.3-0.3,0.7-0.5,1.2-0.6c0.5-0.1,1.1-0.1,1.6,0c0.5,0.1,0.9,0.2,1.3,0.3
		c0.4,0.1,0.8,0.3,1.3,0.4c0.4,0.1,0.9,0.2,1.4,0.3c0.5,0.1,1,0.1,1.5,0.2c0.5,0,1.1,0.1,1.6,0.1c0.5,0,1,0,1.6-0.2
		c0.5-0.1,1.1-0.3,1.6-0.5c0.6-0.2,1.1-0.4,1.6-0.6c0.5-0.3,0.8-0.6,1.2-0.8c0.4-0.2,0.8-0.4,1.2-0.7
		C343.2,645.3,343.7,645,344.1,644.9z"/>
	<path style="opacity:0.3;fill:#FF0000;" d="M322,232l30.3,34.9l0.1-0.8l0.5-1.1l1-0.9l1.1-0.2l0.2-0.1l0.7-0.5l1.6-0.7l1,0.8l0.1,0
		l0.5-0.2l0.8,0l0.8,0l1.1,0l0.7,0.5l1.4,0.4l0.4,1.3l0.1,0.2l0.3,0.4l0.3,0.1l0.4-0.1l0.7,0l0.6-0.1l0.9,0l1,0.1l1.6,0.8l0.2,1.7
		l0.1,0.9l0.1,0.5l0.1,0.7l0.1,0.5l0.1,0.4l0.1,0.2l0,0l0.4,0.2l1,0.5l1.5,1.2l0.5,1.1l0.3,0.4l0.6,1l0.8,1.1l0.5,0.9l1.2,1.2
		l0.4,0.6l0.2,0.1l0.6,0.3l0.6,0.6l0.1,0.1l0.7,0.4l0.4,0.3l0.6,0.2l1,0.4l1.6,1.4l0.1,2.5l-0.1,1.3l-0.7,1.7l10.8,12l2,2.8l0.9,1.5
		l0.4,0.9l0.7,1.5l0.8,2.5l0.3,1.3l0.5,2.1l0.1,2l0.1,2.3l-0.2,1.9l-0.2,1.2l11.1,12.5l-16.4,13.8l-1.7-1.9l-0.3,0.2l-14.6-16.4
		l-0.3,0.3l-0.4,0.4l-0.5,0.5l-0.3,0.3l-0.3,0.1l-0.6,0.2l-0.9,0.2l-0.3,0.1l-0.2,0.2l-0.5,0.6l-1,0.7l-0.1,0.1l-0.1,0.1l-0.5,0.7
		l-1.4,1.1h-0.7l4,4.6l-12.7,11.5L328,314.3l13-11.2l7,7.6l0.2-0.1l0.2-0.1l0.3-0.1l0.2-0.1l0.2,0l0.2,0l0.6,0l0.5,0.1l1.4-0.3
		l0.2,0.1l0.2-0.1l0.6-0.2l0.4,0l0.1,0l1-0.2l2-0.1l1.1-0.4l0.6,0.1l0.5-0.4l0.9-0.1l0.7-0.6l1.1,0.2l0.4-0.2l4-1l0.8-0.1l0-0.1
		l0.2-0.7l0.4-1.2l0.8-0.6l0.6-0.6l0.7-0.9l0.2-0.4l0.2-0.5l-2.2-2.2l-1-0.8l-1-0.5l-0.7-0.4l-0.6-0.2l-0.6-0.1l-0.7-0.1l-1-0.1
		l-0.7-0.1l-0.4-0.1l-0.7,0l-0.7,0l-1,0.1l-0.5,0.1l-0.6,0.2l-0.6,0.3l-1.2,0.4l-0.2-0.1l-3,2.1l-20.7-23.2l-1-0.8l-0.7-0.5
		l-0.6-0.3l-0.3-0.1l-0.5-0.1l-0.6-0.2l-0.8-0.1l-0.8-0.1l-0.7,0l-0.9,0l-0.3,0.1l-1.5,1l-9.7-10.8l1.4-1.1l0.1-0.3l0-0.2l0.1-1.3
		l0-0.4l0-0.9l0-0.6l-0.1-0.7l-0.1-0.6l-0.4-1l-0.3-0.6l-0.5-1l-0.3-0.3l-6.5-7.1l-1.4-1.7L322,232z"/>
</g>
<g id="Outline_x5F_Tommy">
	<path style="opacity:0.3;fill:#FF0000;" d="M331.5,222.7l8,8.4l-30,26.2l5,3.4l-5.6,7l17.9,20.4l24.9-21.9l7.5,8.2l-28.8,25.7
		l6.1,6.9l-5.8,8.4l29.2,32.2l-1.2,1.1l9.5,6.9l9.5-11.9l4.7,1.4l32.5-28.9l19,21.4l-14,12.4l-11.8-13.4l-19.1,17.1l-1.4,2.6
		l17.5,19.7l0.1,0l0.2-0.1l0.2-0.1l0.3-0.1l0.4-0.1l0.3-0.1l0.3,0l0.4,0l0.2,0l0.3,0l0.1,0l0.2,0l0.2,0l0.1,0l0.1,0l0.3,0.1l0.3,0.1
		l0.3,0.1l0.3,0.2l0.2,0.2l0.1,0.1l0.3,0.3l0.1,0.1l0.1,0.1l0.1,0.1l0,0l0,0l0.1,0.2l0,0.1l0.1,0.1l0.1,0.2l0.1,0.1l0,0.1l0.1,0.2
		l0.1,0.2l0.1,0.3l0,0.1l0,0.1l1.3,0.4l32.6-29.1l7.3,8.2L420,387.4l0.3,2.5l4.7,3.6l-1.7,2.8l14.1,15.6l7.9-10.6l6.1,4.7l24.6-22
		l7.3,8.2l-19.9,17.8l-0.5,6.2l-14.5,19.1l-6.2-4.8l-5.7,7.6l-9-3.4l-11.2-8.7l-4.6,4.3l1.9,2.2l-6.2,5.6l-1.9-2.3l-20.4,17.9
		l-42-47.1l6-5.4l-3.5-2.6l15.3-19.9l7.4,5.5l6.6-5.8l-3.5-4l-22.6-17.3l-5.6-0.4l-2.1-1.5l2-2.5l0,0l-3.4,3l-14.8-16.5l0.2-0.1
		l-5.6-4l-12.9-15.1l2.2-2.9l-9.7-7.4l-1.4,1.7l-5.1-3.6l-7.6,6.9l-0.8-0.9l-0.1,0l-0.1,0l-0.1,0l-0.1,0.1l-0.1,0l-0.2,0.1l-0.2,0.1
		l-0.1,0l-0.2,0l-0.2,0l-0.2,0l-0.1,0l-0.1,0l-0.2,0l-0.2,0l0,0l-0.1,0l-0.1,0l0,0l0,0l-0.1,0l-0.2-0.1l-0.2-0.1l-0.2-0.1l-0.2-0.1
		l-0.3-0.2l-0.1-0.1l0,0l0,0l-0.2-0.1l-0.1-0.1l-0.2-0.1l-0.2-0.1l-0.2-0.3l-0.1-0.1l0,0l0-0.1l-0.1-0.1l0-0.1l-0.1-0.1l0-0.1
		l-0.1-0.1l0-0.1l0-0.1l0-0.1l0,0l0,0l0-0.1l0-0.1l0,0l0,0l0-0.1l0-0.1l0-0.1l0-0.2l0-0.1l0-0.2l0-0.2l0-0.2l0-0.1l0-0.1l0-0.3
		l0-0.2l0,0l-1.1-0.9l-3.3-3.7l-0.2,0l-0.3,0l-0.2,0h-0.2l-0.2,0l-0.3,0l-0.2,0l-0.3-0.1l-0.3-0.1l-0.2-0.1l-0.2-0.1l-0.2-0.1
		l-0.1,0l-0.1,0l-0.1-0.1l-0.1,0l-0.1-0.1l-0.1-0.1l-0.1-0.1l-0.2-0.2l-0.2-0.3l-0.1-0.1l-0.1-0.2l-0.2-0.3l-0.1-0.2l-0.2-0.4
		l-0.1-0.5l-0.1-0.4l0-0.4l0-0.3l0-0.3l0.1-0.3l0.1-0.2l0.1-0.3l0.2-0.3l0.1-0.2l0.2-0.3l0.2-0.3l-4.5-3.5l-0.4,0.7l-2.7-3.1
		l-9.5-7.2l0.4-0.5l-0.2-0.1l-0.5-0.2l-0.5-0.3l-0.4-0.3l-0.4-0.5l-0.3-0.5l-0.2-0.4l-0.2-0.7l-0.1-0.5l0-0.6l0.1-0.5l-11.4-8.7l3-4
		l19.4-17.3l-1.8-2.2l4.1-5.4l3.3,2.4l0.3,0l9.9-8.7l12.8,14.4l4-5.2l6.4,4.8L331.5,222.7z"/>
</g>
<g id="Outline_x5F_Anna">
	<path style="opacity:0.3;fill:#FF0000;" d="M306.6,249.8l-37.8-42.2l-27.4,23.1l32.5,37.6l-13.7,14.5L230,248.8l-18.1,17l-24.1-22
		l-14.4-14.5l-50.8-58.4l17.6-16l-3.6-3.9l6.8-5.5l1.3,1.5l28.1-23.3l-1.6-2l6.8-5.6l6.1,7l10.9-9.1l6.1,7l24.1-20.4l108.7,124.9
		L306.6,249.8z"/>
</g>
</svg>
